<svg width="190" height="190" viewBox="0 0 190 190" fill="none" xmlns="http://www.w3.org/2000/svg">
<g filter="url(#filter0_d)">
<circle cx="90" cy="85" r="75" fill="white"/>
</g>
<path d="M114.651 62.8678C113.259 60.9779 111.667 58.3916 105.401 56.6012C108.086 55.1091 111.369 53.6172 111.667 46.4553C111.891 41.0839 109.578 34.8174 104.207 33.6237C98.8357 32.4301 91.9723 32.4301 88.3914 38.3983" stroke="black" stroke-width="3"/>
<path d="M84.2229 81.7551L84.5111 96.178M84.5111 96.178H92.8551C95.1214 96.178 96.9586 94.3408 96.9586 92.0745V83.9355C96.9586 81.6692 95.1214 79.832 92.8551 79.832H88.1144C85.8038 79.832 83.9488 81.7388 84.0124 84.0484L84.5051 101.947M84.5111 96.178L84.7288 107.075M79.6511 101.947H84.5051M89.5 101.947H84.5051M84.5051 101.947L84.876 114.447L84.7288 107.075M84.5051 101.947L84.7288 107.075M78 107.716H92" stroke="#4CA2E3" stroke-width="3.5"/>
<path d="M77.6484 63.166C76.4547 62.3703 74.0078 60.0029 73.769 56.8994" stroke="black" stroke-width="3"/>
<path d="M48.4042 81.9664C45.5195 89.4267 43.1522 106.197 56.7596 113.598C56.5209 116.463 55.6654 124.142 55.2675 127.623L68.0991 131.801L73.7689 123.744C79.2397 125.833 92.6881 128.757 102.715 123.744C104.624 125.654 107.489 129.911 108.683 131.801L120.619 129.115L119.426 117.477C122.808 116.184 130.407 111.927 133.749 105.242C136.614 105.004 141.11 104.347 143 104.049V85.2489L140.911 83.7569H133.749L127.483 75.4014V58.3921C122.609 57.7953 112.801 59.5857 112.562 71.5221" stroke="black" stroke-width="3"/>
<path d="M48.4044 82.2641C44.3261 79.1805 38.6165 70.5664 48.4044 60.7786C48.4044 63.4643 46.6138 69.7309 52.582 71.5213C55.2677 68.5372 64.8168 57.1977 73.7691 57.1977C73.1723 53.9152 72.5755 40.1883 87.1975 38.6963C96.2692 37.7414 101.322 45.2613 102.715 49.1406C103.312 52.1247 103.67 58.9882 100.328 62.5691C97.045 63.1659 78.5436 60.1819 73.7691 65.8516" stroke="black" stroke-width="3"/>
<path d="M103.61 66.1502C103.312 65.255 101.82 63.0468 99.4324 62.5693" stroke="black" stroke-width="3"/>
<circle cx="120.619" cy="83.1599" r="2.98409" fill="black"/>
<defs>
<filter id="filter0_d" x="0" y="0" width="190" height="190" filterUnits="userSpaceOnUse" color-interpolation-filters="sRGB">
<feFlood flood-opacity="0" result="BackgroundImageFix"/>
<feColorMatrix in="SourceAlpha" type="matrix" values="0 0 0 0 0 0 0 0 0 0 0 0 0 0 0 0 0 0 127 0"/>
<feOffset dx="5" dy="10"/>
<feGaussianBlur stdDeviation="10"/>
<feColorMatrix type="matrix" values="0 0 0 0 0.337255 0 0 0 0 0.509804 0 0 0 0 0.639216 0 0 0 0.5 0"/>
<feBlend mode="normal" in2="BackgroundImageFix" result="effect1_dropShadow"/>
<feBlend mode="normal" in="SourceGraphic" in2="effect1_dropShadow" result="shape"/>
</filter>
</defs>
</svg>
