<svg width="25" height="25" viewBox="0 0 25 25" fill="none" xmlns="http://www.w3.org/2000/svg">
<path d="M18.6847 24L5.35134 24.0127C2.418 24.0153 0.0160023 21.618 0.0126689 18.6847L2.22254e-06 5.35134C-0.00266444 2.418 2.39467 0.0160023 5.328 0.0126689L18.6613 2.22254e-06C21.5947 -0.00266444 23.9967 2.39467 24 5.328L24.0127 18.6613C24.016 21.5953 21.618 23.9973 18.6847 24Z" fill="url(#paint0_radial)"/>
<path d="M18.6847 24L5.35134 24.0127C2.418 24.0153 0.0160023 21.618 0.0126689 18.6847L2.22254e-06 5.35134C-0.00266444 2.418 2.39467 0.0160023 5.328 0.0126689L18.6613 2.22254e-06C21.5947 -0.00266444 23.9967 2.39467 24 5.328L24.0127 18.6613C24.016 21.5953 21.618 23.9973 18.6847 24Z" fill="url(#paint1_radial)"/>
<path d="M12.007 16.6732C9.43433 16.6732 7.34033 14.5798 7.34033 12.0065C7.34033 9.43318 9.43433 7.33984 12.007 7.33984C14.5797 7.33984 16.6737 9.43318 16.6737 12.0065C16.6737 14.5798 14.5797 16.6732 12.007 16.6732ZM12.007 8.67318C10.169 8.67318 8.67367 10.1685 8.67367 12.0065C8.67367 13.8445 10.169 15.3398 12.007 15.3398C13.845 15.3398 15.3403 13.8445 15.3403 12.0065C15.3403 10.1685 13.845 8.67318 12.007 8.67318Z" fill="white"/>
<path d="M17.0068 8.00684C17.5591 8.00684 18.0068 7.55912 18.0068 7.00684C18.0068 6.45455 17.5591 6.00684 17.0068 6.00684C16.4546 6.00684 16.0068 6.45455 16.0068 7.00684C16.0068 7.55912 16.4546 8.00684 17.0068 8.00684Z" fill="white"/>
<path d="M16.007 20.6732H8.007C5.43433 20.6732 3.34033 18.5798 3.34033 16.0065V8.00651C3.34033 5.43318 5.43433 3.33984 8.007 3.33984H16.007C18.5797 3.33984 20.6737 5.43318 20.6737 8.00651V16.0065C20.6737 18.5798 18.5797 20.6732 16.007 20.6732ZM8.007 4.67318C6.169 4.67318 4.67367 6.16851 4.67367 8.00651V16.0065C4.67367 17.8445 6.169 19.3398 8.007 19.3398H16.007C17.845 19.3398 19.3403 17.8445 19.3403 16.0065V8.00651C19.3403 6.16851 17.845 4.67318 16.007 4.67318H8.007Z" fill="white"/>
<defs>
<radialGradient id="paint0_radial" cx="0" cy="0" r="1" gradientUnits="userSpaceOnUse" gradientTransform="translate(8.92667 24.03) scale(29.9327)">
<stop stop-color="#FFDD55"/>
<stop offset="0.328" stop-color="#FF543F"/>
<stop offset="0.348" stop-color="#FC5245"/>
<stop offset="0.504" stop-color="#E64771"/>
<stop offset="0.643" stop-color="#D53E91"/>
<stop offset="0.761" stop-color="#CC39A4"/>
<stop offset="0.841" stop-color="#C837AB"/>
</radialGradient>
<radialGradient id="paint1_radial" cx="0" cy="0" r="1" gradientUnits="userSpaceOnUse" gradientTransform="translate(3.864 -0.299796) scale(19.8753 13.2429)">
<stop stop-color="#4168C9"/>
<stop offset="0.999" stop-color="#4168C9" stop-opacity="0"/>
</radialGradient>
</defs>
</svg>
