<svg width="601" height="385" viewBox="0 0 601 385" fill="none" xmlns="http://www.w3.org/2000/svg">
<path d="M571.379 142.136C568.761 151.844 564.015 149.908 561.97 147.726L534.114 121.136L513.659 136.794C513.455 137.022 513.24 137.193 513.017 137.286C512.383 137.552 511.684 137.193 510.971 135.727C509.008 131.69 507.699 110.136 507.289 99.8638C498.835 96.4094 480.59 89.0368 475.245 87.1823C468.263 83.0369 474.154 80.0007 477.972 79.0007C513.653 69.4554 586.733 49.9559 593.606 48.3195C600.478 46.6832 600.469 51.7286 599.606 54.4558C591.56 79.6825 574.652 132.536 571.379 142.136Z" fill="white"/>
<path d="M507.289 99.8638L575.47 65.3646L519.971 107.636M507.289 99.8638C498.835 96.4094 480.59 89.0368 475.245 87.1823C468.263 83.0369 474.154 80.0007 477.972 79.0007C513.653 69.4554 586.733 49.9559 593.606 48.3195C600.478 46.6832 600.469 51.7286 599.606 54.4558C591.56 79.6825 574.652 132.536 571.379 142.136C568.761 151.844 564.015 149.908 561.97 147.726L534.114 121.136M507.289 99.8638C507.699 110.136 509.008 131.69 510.971 135.727C511.684 137.193 512.383 137.552 513.017 137.286M519.971 107.636L515.471 132.727C515.037 134.434 514.127 136.821 513.017 137.286M519.971 107.636L534.114 121.136M513.017 137.286L534.114 121.136" stroke="#969696"/>
<path d="M574.525 66.0205L507.418 100.195C507.625 107.237 508.288 123.061 509.282 130.021C510.276 136.98 512.181 137.891 513.01 137.477C514.501 136.98 514.874 135.613 514.874 134.37L519.845 107.652L574.525 66.0205Z" fill="#ECECEC" stroke="#969696" stroke-width="1.24272"/>
<path d="M513.01 137.475L519.845 107.649L534.136 121.319L513.01 137.475Z" fill="#D3D3D3" stroke="#969696" stroke-width="1.24272"/>
<path d="M488.902 161.745C387.349 274.427 206.101 277.302 202.924 223.718C199.747 170.135 286.697 155.982 311.802 174.381C336.907 192.781 322.992 218.797 309.454 242.989C295.916 267.18 250.273 288.14 200.967 286.014C108.225 282.013 55.9701 245.826 19.1331 178.119" stroke="#969696" stroke-dasharray="10.5 10.5"/>
</svg>
