<svg width="26" height="21" viewBox="0 0 26 21" fill="none" xmlns="http://www.w3.org/2000/svg">
<path d="M19.6335 18.6504C19.1427 20.4708 18.2529 20.1078 17.8694 19.6987L12.6463 14.713L8.81112 17.6489C8.77275 17.6916 8.73244 17.7236 8.69061 17.7412C8.57184 17.791 8.44081 17.7236 8.30709 17.4488C7.93892 16.6919 7.69347 12.6506 7.61677 10.7245C6.03158 10.0768 2.61064 8.6944 1.60839 8.34668C0.299324 7.56943 1.40384 7.00012 2.11974 6.81263C8.80993 5.02289 22.5125 1.36672 23.8011 1.05991C25.0897 0.753102 25.088 1.6991 24.926 2.21046C23.4176 6.94046 20.2472 16.8505 19.6335 18.6504Z" fill="white"/>
<path d="M7.61677 10.7245L20.4006 4.25586L9.99456 12.1818M7.61677 10.7245C6.03158 10.0768 2.61064 8.6944 1.60839 8.34668C0.299324 7.56943 1.40384 7.00012 2.11974 6.81263C8.80993 5.02289 22.5125 1.36672 23.8011 1.05991C25.0897 0.753102 25.088 1.6991 24.926 2.21046C23.4176 6.94046 20.2472 16.8505 19.6335 18.6504C19.1427 20.4708 18.2529 20.1078 17.8694 19.6987L12.6463 14.713M7.61677 10.7245C7.69347 12.6506 7.93892 16.692 8.30709 17.4488C8.44081 17.7236 8.57184 17.791 8.69061 17.7412M9.99456 12.1818L9.15082 16.8863C9.06942 17.2065 8.89884 17.6538 8.69061 17.7412M9.99456 12.1818L12.6463 14.713M8.69061 17.7412L12.6463 14.713" stroke="#5682A3" stroke-width="1.23198"/>
</svg>
