<svg width="46" height="37" viewBox="0 0 46 37" fill="none" xmlns="http://www.w3.org/2000/svg">
<path d="M35.1615 33.3591C34.2615 36.6965 32.6303 36.0309 31.9272 35.2809L22.3515 26.1405L15.3204 31.523C15.25 31.6012 15.1761 31.66 15.0994 31.6921C14.8817 31.7834 14.6415 31.66 14.3963 31.156C13.7214 29.7686 13.2714 22.3594 13.1308 18.8282C10.2246 17.6407 3.95283 15.1064 2.11537 14.4689C-0.284573 13.044 1.74038 12.0002 3.05285 11.6565C15.3182 8.3753 40.4395 1.67233 42.802 1.10984C45.1644 0.547353 45.1613 2.28169 44.8644 3.21917C42.0989 11.8908 36.2865 30.0592 35.1615 33.3591Z" fill="white"/>
<path d="M13.1308 18.8282L36.5677 6.96908L17.49 21.5M13.1308 18.8282C10.2246 17.6407 3.95283 15.1064 2.11537 14.4689C-0.284573 13.044 1.74038 12.0002 3.05285 11.6565C15.3182 8.3753 40.4395 1.67233 42.802 1.10984C45.1644 0.547353 45.1613 2.28169 44.8644 3.21917C42.0988 11.8908 36.2865 30.0592 35.1615 33.3591C34.2615 36.6965 32.6303 36.0309 31.9272 35.2809L22.3515 26.1405M13.1308 18.8282C13.2714 22.3594 13.7214 29.7686 14.3963 31.156C14.6415 31.66 14.8817 31.7834 15.0994 31.6921M17.49 21.5L15.9432 30.1248C15.7939 30.7119 15.4812 31.5321 15.0994 31.6921M17.49 21.5L22.3515 26.1405M15.0994 31.6921L22.3515 26.1405" stroke="#C0C0C0" stroke-width="0.34375"/>
<path d="M36.2428 7.19453L13.1748 18.9421C13.246 21.3628 13.4738 26.8023 13.8156 29.1945C14.1573 31.5868 14.8123 31.9 15.0971 31.7576C15.6098 31.5868 15.7379 31.1169 15.7379 30.6897L17.4466 21.5052L36.2428 7.19453Z" fill="#ECECEC" stroke="#C0C0C0" stroke-width="0.427185"/>
<path d="M15.0972 31.757L17.4467 21.5046L22.3593 26.2036L15.0972 31.757Z" fill="#D3D3D3" stroke="#C0C0C0" stroke-width="0.427185"/>
</svg>
