<svg width="130" height="104" viewBox="0 0 130 104" fill="none" xmlns="http://www.w3.org/2000/svg">
<path d="M100.379 95.1356C97.7608 104.844 93.0155 102.908 90.97 100.726L63.1135 74.1361L42.6593 89.7942C42.4547 90.0216 42.2397 90.1926 42.0166 90.2862C41.3831 90.5518 40.6843 90.1926 39.9712 88.7267C38.0076 84.6904 36.6985 63.1363 36.2895 52.8638C27.8351 49.4094 9.59006 42.0368 4.24472 40.1823C-2.73694 36.0369 3.15384 33.0007 6.97193 32.0007C42.6529 22.4554 115.733 2.95586 122.606 1.31954C129.478 -0.31679 129.469 4.72855 128.606 7.45576C120.56 32.6825 103.652 85.5358 100.379 95.1356Z" fill="white"/>
<path d="M36.2895 52.8638L104.47 18.3646L48.971 60.6364M36.2895 52.8638C27.8351 49.4094 9.59006 42.0368 4.24472 40.1823C-2.73694 36.0369 3.15384 33.0007 6.97193 32.0007C42.6529 22.4554 115.733 2.95586 122.606 1.31954C129.478 -0.31679 129.469 4.72855 128.606 7.45576C120.56 32.6825 103.652 85.5358 100.379 95.1356C97.7608 104.844 93.0155 102.908 90.97 100.726L63.1135 74.1361M36.2895 52.8638C36.6985 63.1363 38.0076 84.6904 39.9712 88.7267C40.6843 90.1927 41.3831 90.5518 42.0166 90.2862M48.971 60.6364L44.4711 85.7267C44.0369 87.4345 43.1272 89.8205 42.0166 90.2862M48.971 60.6364L63.1135 74.1361M42.0166 90.2862L63.1135 74.1361" stroke="#A0A0A0"/>
<path d="M103.525 19.0205L36.4177 53.1953C36.6248 60.2373 37.2876 76.0613 38.2818 83.0205C39.276 89.9797 41.1815 90.8911 42.01 90.4768C43.5012 89.9797 43.874 88.6127 43.874 87.37L48.8449 60.6516L103.525 19.0205Z" fill="#ECECEC"/>
<path d="M42.0098 90.4747L48.8447 60.6494L63.136 74.3193L42.0098 90.4747Z" fill="#D3D3D3"/>
</svg>
