<svg width="36" height="29" viewBox="0 0 36 29" fill="none" xmlns="http://www.w3.org/2000/svg">
<path d="M27.3975 26.0048C26.7021 28.5837 25.4416 28.0694 24.8983 27.4898L17.4989 20.4268L12.0658 24.5859C12.0114 24.6464 11.9543 24.6918 11.895 24.7166C11.7268 24.7872 11.5412 24.6918 11.3517 24.3024C10.8301 23.2303 10.4824 17.505 10.3738 14.7763C8.12807 13.8587 3.28173 11.9004 1.86188 11.4078C0.0073753 10.3067 1.57211 9.50017 2.58629 9.23455C12.0641 6.6991 31.476 1.51953 33.3015 1.08488C35.127 0.650228 35.1246 1.9904 34.8952 2.71481C32.7582 9.41566 28.2668 23.4548 27.3975 26.0048Z" fill="white"/>
<path d="M10.3738 14.7763L28.4842 5.61247L13.7423 16.8409M10.3738 14.7763C8.12807 13.8587 3.28173 11.9004 1.86188 11.4078C0.00737529 10.3067 1.57211 9.50017 2.58629 9.23455C12.0641 6.6991 31.476 1.51953 33.3015 1.08488C35.127 0.650228 35.1246 1.9904 34.8952 2.71481C32.7582 9.41566 28.2668 23.4548 27.3975 26.0048C26.7021 28.5837 25.4416 28.0694 24.8983 27.4898L17.4989 20.4268M10.3738 14.7763C10.4824 17.505 10.8301 23.2303 11.3517 24.3024C11.5412 24.6918 11.7268 24.7872 11.895 24.7166M13.7423 16.8409L12.547 23.5055C12.4317 23.9592 12.19 24.593 11.895 24.7166M13.7423 16.8409L17.4989 20.4268M11.895 24.7166L17.4989 20.4268" stroke="#5682A3"/>
</svg>
