<svg xmlns="http://www.w3.org/2000/svg" width="3.472in" height="82.656">
    <text fill="#FFF" font-family="Montserrat" font-size="17.416" font-weight="bold" transform="matrix(2.3932 0 0 2.40647 97.173 49.642)">
        BlueRex
    </text>
    <path fill="#FFF" fill-rule="evenodd" d="M69.051 27.839l-8.35 26.453c-1.128 3.572-5.44 5.372-9.633 4.02-4.193-1.352-6.678-5.345-5.55-8.917l8.35-26.453c1.127-3.572 5.44-5.372 9.633-4.019 4.193 1.352 6.677 5.344 5.55 8.916zm-28.29 27.279c-1.735 5.496-8.371 8.266-14.823 6.185-6.451-2.08-10.274-8.223-8.539-13.72L30.247 6.881c1.735-5.497 8.371-8.267 14.822-6.186 6.452 2.081 10.275 8.223 8.54 13.72L40.761 55.118zm-24.314-13.74c-1.127 3.573-5.441 5.373-9.633 4.02-4.193-1.351-6.677-5.344-5.55-8.916l8.35-26.453c1.127-3.572 5.44-5.372 9.633-4.019 4.193 1.351 6.677 5.344 5.55 8.916l-8.35 26.452z"/>
</svg>
